<svg xmlns="http://www.w3.org/2000/svg" xmlns:xlink="http://www.w3.org/1999/xlink" width="251" zoomAndPan="magnify" viewBox="0 0 188.25 52.499999" height="70" preserveAspectRatio="xMidYMid meet" version="1.2"><defs><clipPath id="1dd0b901e8"><path d="M 34.683594 24 L 66 24 L 66 52 L 34.683594 52 Z M 34.683594 24 "/></clipPath><clipPath id="5891f9b561"><path d="M 36 0 L 69.601562 0 L 69.601562 38 L 36 38 Z M 36 0 "/></clipPath></defs><g id="a7a1085527"><g clip-rule="nonzero" clip-path="url(#1dd0b901e8)"><path style=" stroke:none;fill-rule:nonzero;fill:#32bada;fill-opacity:1;" d="M 39.867188 27.792969 C 39.882812 27.671875 39.894531 27.546875 39.894531 27.417969 C 39.894531 25.980469 38.726562 24.8125 37.289062 24.8125 C 35.851562 24.8125 34.683594 25.980469 34.683594 27.417969 C 34.683594 28.855469 35.851562 30.019531 37.289062 30.019531 C 37.972656 30.019531 38.59375 29.757812 39.058594 29.328125 L 62.945312 41.902344 C 60.742188 44.949219 57.511719 47.589844 52.78125 49.886719 C 45.972656 46.578125 42.269531 42.550781 40.269531 37.644531 L 50.207031 42.875 C 50.1875 43 50.179688 43.125 50.179688 43.25 C 50.179688 44.691406 51.34375 45.855469 52.785156 45.855469 C 54.222656 45.855469 55.386719 44.691406 55.386719 43.25 C 55.386719 41.8125 54.222656 40.648438 52.785156 40.648438 C 52.101562 40.648438 51.480469 40.910156 51.015625 41.339844 L 39.441406 35.246094 L 37.386719 34.164062 C 37.5625 34.945312 37.769531 35.707031 38.007812 36.453125 C 39.972656 42.613281 44.042969 47.667969 52.410156 51.632812 L 52.78125 51.808594 L 53.15625 51.632812 C 58.492188 49.105469 62.078125 46.136719 64.488281 42.71875 C 64.828125 42.238281 65.140625 41.75 65.433594 41.253906 L 63.902344 40.445312 Z M 39.867188 27.792969 "/></g><g clip-rule="nonzero" clip-path="url(#5891f9b561)"><path style=" stroke:none;fill-rule:nonzero;fill:#32bada;fill-opacity:1;" d="M 66.992188 32.773438 C 66.308594 32.773438 65.6875 33.035156 65.226562 33.464844 L 38.984375 19.652344 L 52.78125 12.714844 L 67.613281 20.167969 C 67.609375 22.550781 67.566406 24.808594 67.429688 26.949219 L 55.359375 20.59375 C 55.378906 20.472656 55.386719 20.347656 55.386719 20.21875 C 55.386719 18.78125 54.222656 17.613281 52.785156 17.613281 C 51.34375 17.613281 50.179688 18.78125 50.179688 20.21875 C 50.179688 21.65625 51.34375 22.820312 52.785156 22.820312 C 53.464844 22.820312 54.085938 22.558594 54.550781 22.128906 L 67.28125 28.832031 L 68.925781 29.695312 C 68.996094 29.082031 69.050781 28.460938 69.101562 27.828125 C 69.300781 25.246094 69.351562 22.511719 69.351562 19.632812 L 69.351562 19.09375 L 63.035156 15.921875 L 63.035156 10.277344 C 63.035156 4.625 58.4375 0.0234375 52.78125 0.0234375 C 47.128906 0.0234375 42.527344 4.625 42.527344 10.277344 L 42.527344 15.925781 L 37.09375 18.65625 L 36.21875 19.09375 L 36.21875 19.632812 C 36.21875 19.808594 36.21875 19.984375 36.21875 20.160156 L 37.957031 21.070312 L 64.417969 35 C 64.398438 35.125 64.390625 35.25 64.390625 35.375 C 64.390625 36.816406 65.554688 37.980469 66.992188 37.980469 C 68.433594 37.980469 69.597656 36.816406 69.597656 35.375 C 69.597656 33.9375 68.433594 32.773438 66.992188 32.773438 Z M 44.265625 10.277344 C 44.265625 5.582031 48.085938 1.761719 52.78125 1.761719 C 57.480469 1.761719 61.300781 5.582031 61.300781 10.277344 L 61.300781 15.050781 L 52.78125 10.773438 L 44.265625 15.050781 Z M 44.265625 10.277344 "/></g><g style="fill:#ffffff;fill-opacity:1;"><g transform="translate(75.5585, 22.759002)"><path style="stroke:none" d="M 4.671875 0.109375 C 3.910156 0.109375 3.226562 -0.015625 2.625 -0.265625 C 2.03125 -0.515625 1.550781 -0.878906 1.1875 -1.359375 C 0.832031 -1.847656 0.644531 -2.429688 0.625 -3.109375 L 3.3125 -3.109375 C 3.351562 -2.722656 3.484375 -2.425781 3.703125 -2.21875 C 3.929688 -2.019531 4.234375 -1.921875 4.609375 -1.921875 C 4.984375 -1.921875 5.273438 -2.003906 5.484375 -2.171875 C 5.703125 -2.347656 5.8125 -2.59375 5.8125 -2.90625 C 5.8125 -3.15625 5.722656 -3.363281 5.546875 -3.53125 C 5.378906 -3.695312 5.171875 -3.832031 4.921875 -3.9375 C 4.671875 -4.050781 4.3125 -4.179688 3.84375 -4.328125 C 3.175781 -4.523438 2.628906 -4.726562 2.203125 -4.9375 C 1.773438 -5.144531 1.410156 -5.453125 1.109375 -5.859375 C 0.804688 -6.265625 0.65625 -6.789062 0.65625 -7.4375 C 0.65625 -8.40625 1.003906 -9.160156 1.703125 -9.703125 C 2.398438 -10.253906 3.3125 -10.53125 4.4375 -10.53125 C 5.582031 -10.53125 6.503906 -10.253906 7.203125 -9.703125 C 7.898438 -9.160156 8.273438 -8.398438 8.328125 -7.421875 L 5.59375 -7.421875 C 5.570312 -7.765625 5.445312 -8.03125 5.21875 -8.21875 C 5 -8.414062 4.707031 -8.515625 4.34375 -8.515625 C 4.039062 -8.515625 3.796875 -8.429688 3.609375 -8.265625 C 3.421875 -8.097656 3.328125 -7.863281 3.328125 -7.5625 C 3.328125 -7.226562 3.484375 -6.96875 3.796875 -6.78125 C 4.117188 -6.59375 4.613281 -6.390625 5.28125 -6.171875 C 5.945312 -5.941406 6.488281 -5.722656 6.90625 -5.515625 C 7.332031 -5.304688 7.695312 -5.003906 8 -4.609375 C 8.3125 -4.222656 8.46875 -3.71875 8.46875 -3.09375 C 8.46875 -2.5 8.316406 -1.957031 8.015625 -1.46875 C 7.710938 -0.988281 7.273438 -0.601562 6.703125 -0.3125 C 6.128906 -0.03125 5.453125 0.109375 4.671875 0.109375 Z M 4.671875 0.109375 "/></g></g><g style="fill:#ffffff;fill-opacity:1;"><g transform="translate(85.275219, 22.759002)"><path style="stroke:none" d="M 12.6875 -10.390625 L 12.6875 0 L 10.15625 0 L 10.15625 -6.234375 L 7.828125 0 L 5.78125 0 L 3.453125 -6.25 L 3.453125 0 L 0.921875 0 L 0.921875 -10.390625 L 3.90625 -10.390625 L 6.828125 -3.203125 L 9.703125 -10.390625 Z M 12.6875 -10.390625 "/></g></g><g style="fill:#ffffff;fill-opacity:1;"><g transform="translate(99.473136, 22.759002)"><path style="stroke:none" d="M 7.390625 -1.828125 L 3.5 -1.828125 L 2.890625 0 L 0.234375 0 L 4 -10.390625 L 6.921875 -10.390625 L 10.6875 0 L 8 0 Z M 6.734375 -3.78125 L 5.4375 -7.59375 L 4.171875 -3.78125 Z M 6.734375 -3.78125 "/></g></g><g style="fill:#ffffff;fill-opacity:1;"><g transform="translate(110.994165, 22.759002)"><path style="stroke:none" d="M 6.21875 0 L 4.046875 -3.921875 L 3.453125 -3.921875 L 3.453125 0 L 0.921875 0 L 0.921875 -10.390625 L 5.171875 -10.390625 C 5.984375 -10.390625 6.675781 -10.242188 7.25 -9.953125 C 7.832031 -9.671875 8.265625 -9.28125 8.546875 -8.78125 C 8.835938 -8.28125 8.984375 -7.726562 8.984375 -7.125 C 8.984375 -6.425781 8.785156 -5.804688 8.390625 -5.265625 C 8.003906 -4.722656 7.429688 -4.335938 6.671875 -4.109375 L 9.078125 0 Z M 3.453125 -5.71875 L 5.015625 -5.71875 C 5.484375 -5.71875 5.832031 -5.828125 6.0625 -6.046875 C 6.289062 -6.273438 6.40625 -6.597656 6.40625 -7.015625 C 6.40625 -7.410156 6.289062 -7.71875 6.0625 -7.9375 C 5.832031 -8.164062 5.484375 -8.28125 5.015625 -8.28125 L 3.453125 -8.28125 Z M 3.453125 -5.71875 "/></g></g><g style="fill:#ffffff;fill-opacity:1;"><g transform="translate(121.258091, 22.759002)"><path style="stroke:none" d="M 8.390625 -10.390625 L 8.390625 -8.359375 L 5.640625 -8.359375 L 5.640625 0 L 3.109375 0 L 3.109375 -8.359375 L 0.359375 -8.359375 L 0.359375 -10.390625 Z M 8.390625 -10.390625 "/></g></g><g style="fill:#ffffff;fill-opacity:1;"><g transform="translate(130.627961, 22.759002)"><path style="stroke:none" d=""/></g></g><g style="fill:#ffffff;fill-opacity:1;"><g transform="translate(75.5585, 38.975776)"><path style="stroke:none" d="M 7.390625 -1.828125 L 3.5 -1.828125 L 2.890625 0 L 0.234375 0 L 4 -10.390625 L 6.921875 -10.390625 L 10.6875 0 L 8 0 Z M 6.734375 -3.78125 L 5.4375 -7.59375 L 4.171875 -3.78125 Z M 6.734375 -3.78125 "/></g></g><g style="fill:#ffffff;fill-opacity:1;"><g transform="translate(87.079529, 38.975776)"><path style="stroke:none" d="M 3.453125 -1.953125 L 6.765625 -1.953125 L 6.765625 0 L 0.921875 0 L 0.921875 -10.390625 L 3.453125 -10.390625 Z M 3.453125 -1.953125 "/></g></g><g style="fill:#ffffff;fill-opacity:1;"><g transform="translate(94.755311, 38.975776)"><path style="stroke:none" d="M 7.390625 -1.828125 L 3.5 -1.828125 L 2.890625 0 L 0.234375 0 L 4 -10.390625 L 6.921875 -10.390625 L 10.6875 0 L 8 0 Z M 6.734375 -3.78125 L 5.4375 -7.59375 L 4.171875 -3.78125 Z M 6.734375 -3.78125 "/></g></g><g style="fill:#ffffff;fill-opacity:1;"><g transform="translate(106.27634, 38.975776)"><path style="stroke:none" d="M 6.21875 0 L 4.046875 -3.921875 L 3.453125 -3.921875 L 3.453125 0 L 0.921875 0 L 0.921875 -10.390625 L 5.171875 -10.390625 C 5.984375 -10.390625 6.675781 -10.242188 7.25 -9.953125 C 7.832031 -9.671875 8.265625 -9.28125 8.546875 -8.78125 C 8.835938 -8.28125 8.984375 -7.726562 8.984375 -7.125 C 8.984375 -6.425781 8.785156 -5.804688 8.390625 -5.265625 C 8.003906 -4.722656 7.429688 -4.335938 6.671875 -4.109375 L 9.078125 0 Z M 3.453125 -5.71875 L 5.015625 -5.71875 C 5.484375 -5.71875 5.832031 -5.828125 6.0625 -6.046875 C 6.289062 -6.273438 6.40625 -6.597656 6.40625 -7.015625 C 6.40625 -7.410156 6.289062 -7.71875 6.0625 -7.9375 C 5.832031 -8.164062 5.484375 -8.28125 5.015625 -8.28125 L 3.453125 -8.28125 Z M 3.453125 -5.71875 "/></g></g><g style="fill:#ffffff;fill-opacity:1;"><g transform="translate(116.540265, 38.975776)"><path style="stroke:none" d="M 7.390625 -1.828125 L 3.5 -1.828125 L 2.890625 0 L 0.234375 0 L 4 -10.390625 L 6.921875 -10.390625 L 10.6875 0 L 8 0 Z M 6.734375 -3.78125 L 5.4375 -7.59375 L 4.171875 -3.78125 Z M 6.734375 -3.78125 "/></g></g><g style="fill:#ffffff;fill-opacity:1;"><g transform="translate(128.061295, 38.975776)"><path style="stroke:none" d="M 12.6875 -10.390625 L 12.6875 0 L 10.15625 0 L 10.15625 -6.234375 L 7.828125 0 L 5.78125 0 L 3.453125 -6.25 L 3.453125 0 L 0.921875 0 L 0.921875 -10.390625 L 3.90625 -10.390625 L 6.828125 -3.203125 L 9.703125 -10.390625 Z M 12.6875 -10.390625 "/></g></g><g style="fill:#ffffff;fill-opacity:1;"><g transform="translate(142.259212, 38.975776)"><path style="stroke:none" d="M 4.671875 0.109375 C 3.910156 0.109375 3.226562 -0.015625 2.625 -0.265625 C 2.03125 -0.515625 1.550781 -0.878906 1.1875 -1.359375 C 0.832031 -1.847656 0.644531 -2.429688 0.625 -3.109375 L 3.3125 -3.109375 C 3.351562 -2.722656 3.484375 -2.425781 3.703125 -2.21875 C 3.929688 -2.019531 4.234375 -1.921875 4.609375 -1.921875 C 4.984375 -1.921875 5.273438 -2.003906 5.484375 -2.171875 C 5.703125 -2.347656 5.8125 -2.59375 5.8125 -2.90625 C 5.8125 -3.15625 5.722656 -3.363281 5.546875 -3.53125 C 5.378906 -3.695312 5.171875 -3.832031 4.921875 -3.9375 C 4.671875 -4.050781 4.3125 -4.179688 3.84375 -4.328125 C 3.175781 -4.523438 2.628906 -4.726562 2.203125 -4.9375 C 1.773438 -5.144531 1.410156 -5.453125 1.109375 -5.859375 C 0.804688 -6.265625 0.65625 -6.789062 0.65625 -7.4375 C 0.65625 -8.40625 1.003906 -9.160156 1.703125 -9.703125 C 2.398438 -10.253906 3.3125 -10.53125 4.4375 -10.53125 C 5.582031 -10.53125 6.503906 -10.253906 7.203125 -9.703125 C 7.898438 -9.160156 8.273438 -8.398438 8.328125 -7.421875 L 5.59375 -7.421875 C 5.570312 -7.765625 5.445312 -8.03125 5.21875 -8.21875 C 5 -8.414062 4.707031 -8.515625 4.34375 -8.515625 C 4.039062 -8.515625 3.796875 -8.429688 3.609375 -8.265625 C 3.421875 -8.097656 3.328125 -7.863281 3.328125 -7.5625 C 3.328125 -7.226562 3.484375 -6.96875 3.796875 -6.78125 C 4.117188 -6.59375 4.613281 -6.390625 5.28125 -6.171875 C 5.945312 -5.941406 6.488281 -5.722656 6.90625 -5.515625 C 7.332031 -5.304688 7.695312 -5.003906 8 -4.609375 C 8.3125 -4.222656 8.46875 -3.71875 8.46875 -3.09375 C 8.46875 -2.5 8.316406 -1.957031 8.015625 -1.46875 C 7.710938 -0.988281 7.273438 -0.601562 6.703125 -0.3125 C 6.128906 -0.03125 5.453125 0.109375 4.671875 0.109375 Z M 4.671875 0.109375 "/></g></g><g style="fill:#32bada;fill-opacity:1;"><g transform="translate(76.493078, 46.478623)"><path style="stroke:none" d="M 0.25 0 L 0.25 -2.796875 L 1.65625 -2.796875 C 1.789062 -2.796875 1.914062 -2.773438 2.03125 -2.734375 C 2.144531 -2.691406 2.242188 -2.628906 2.328125 -2.546875 C 2.410156 -2.472656 2.472656 -2.378906 2.515625 -2.265625 C 2.566406 -2.160156 2.59375 -2.046875 2.59375 -1.921875 C 2.59375 -1.796875 2.566406 -1.679688 2.515625 -1.578125 C 2.472656 -1.472656 2.410156 -1.378906 2.328125 -1.296875 C 2.242188 -1.222656 2.144531 -1.164062 2.03125 -1.125 C 1.914062 -1.082031 1.789062 -1.0625 1.65625 -1.0625 L 0.828125 -1.0625 L 0.828125 0 Z M 1.59375 -2.296875 L 0.828125 -2.296875 L 0.828125 -1.53125 L 1.59375 -1.53125 C 1.71875 -1.53125 1.816406 -1.566406 1.890625 -1.640625 C 1.972656 -1.710938 2.015625 -1.804688 2.015625 -1.921875 C 2.015625 -2.035156 1.972656 -2.125 1.890625 -2.1875 C 1.816406 -2.257812 1.71875 -2.296875 1.59375 -2.296875 Z M 1.59375 -2.296875 "/></g></g><g style="fill:#32bada;fill-opacity:1;"><g transform="translate(79.875339, 46.478623)"><path style="stroke:none" d="M 0.25 0 L 0.25 -2.796875 L 1.625 -2.796875 C 1.757812 -2.796875 1.882812 -2.773438 2 -2.734375 C 2.125 -2.691406 2.226562 -2.628906 2.3125 -2.546875 C 2.394531 -2.472656 2.460938 -2.382812 2.515625 -2.28125 C 2.566406 -2.175781 2.59375 -2.0625 2.59375 -1.9375 C 2.59375 -1.757812 2.539062 -1.597656 2.4375 -1.453125 C 2.332031 -1.316406 2.203125 -1.21875 2.046875 -1.15625 L 2.65625 0 L 2.015625 0 L 1.46875 -1.078125 L 0.828125 -1.078125 L 0.828125 0 Z M 1.5625 -2.296875 L 0.828125 -2.296875 L 0.828125 -1.546875 L 1.5625 -1.546875 C 1.695312 -1.546875 1.800781 -1.578125 1.875 -1.640625 C 1.957031 -1.710938 2 -1.804688 2 -1.921875 C 2 -2.035156 1.957031 -2.125 1.875 -2.1875 C 1.800781 -2.257812 1.695312 -2.296875 1.5625 -2.296875 Z M 1.5625 -2.296875 "/></g></g><g style="fill:#32bada;fill-opacity:1;"><g transform="translate(83.249614, 46.478623)"><path style="stroke:none" d="M 0.25 0 L 0.25 -2.796875 L 2.40625 -2.796875 L 2.40625 -2.296875 L 0.828125 -2.296875 L 0.828125 -1.65625 L 1.875 -1.65625 L 1.875 -1.171875 L 0.828125 -1.171875 L 0.828125 -0.5 L 2.421875 -0.5 L 2.421875 0 Z M 0.25 0 "/></g></g><g style="fill:#32bada;fill-opacity:1;"><g transform="translate(86.488117, 46.478623)"><path style="stroke:none" d="M 1.65625 -0.5 C 1.800781 -0.5 1.9375 -0.53125 2.0625 -0.59375 C 2.1875 -0.65625 2.300781 -0.742188 2.40625 -0.859375 L 2.78125 -0.46875 C 2.644531 -0.3125 2.472656 -0.1875 2.265625 -0.09375 C 2.066406 0 1.859375 0.046875 1.640625 0.046875 C 1.421875 0.046875 1.21875 0.0078125 1.03125 -0.0625 C 0.851562 -0.144531 0.695312 -0.25 0.5625 -0.375 C 0.4375 -0.5 0.332031 -0.648438 0.25 -0.828125 C 0.175781 -1.003906 0.140625 -1.195312 0.140625 -1.40625 C 0.140625 -1.601562 0.175781 -1.789062 0.25 -1.96875 C 0.332031 -2.144531 0.441406 -2.296875 0.578125 -2.421875 C 0.710938 -2.554688 0.867188 -2.660156 1.046875 -2.734375 C 1.234375 -2.804688 1.429688 -2.84375 1.640625 -2.84375 C 1.859375 -2.84375 2.070312 -2.796875 2.28125 -2.703125 C 2.5 -2.609375 2.671875 -2.476562 2.796875 -2.3125 L 2.40625 -1.9375 C 2.3125 -2.050781 2.195312 -2.140625 2.0625 -2.203125 C 1.925781 -2.273438 1.785156 -2.3125 1.640625 -2.3125 C 1.515625 -2.3125 1.394531 -2.285156 1.28125 -2.234375 C 1.164062 -2.191406 1.066406 -2.128906 0.984375 -2.046875 C 0.910156 -1.960938 0.847656 -1.863281 0.796875 -1.75 C 0.753906 -1.644531 0.734375 -1.53125 0.734375 -1.40625 C 0.734375 -1.269531 0.753906 -1.144531 0.796875 -1.03125 C 0.847656 -0.925781 0.914062 -0.832031 1 -0.75 C 1.082031 -0.675781 1.175781 -0.613281 1.28125 -0.5625 C 1.394531 -0.519531 1.519531 -0.5 1.65625 -0.5 Z M 1.65625 -0.5 "/></g></g><g style="fill:#32bada;fill-opacity:1;"><g transform="translate(90.018127, 46.478623)"><path style="stroke:none" d="M 0.25 0 L 0.25 -2.796875 L 0.828125 -2.796875 L 0.828125 0 Z M 0.25 0 "/></g></g><g style="fill:#32bada;fill-opacity:1;"><g transform="translate(91.767156, 46.478623)"><path style="stroke:none" d="M 0.015625 -0.4375 L 0.34375 -0.859375 C 0.507812 -0.710938 0.664062 -0.609375 0.8125 -0.546875 C 0.96875 -0.484375 1.128906 -0.453125 1.296875 -0.453125 C 1.460938 -0.453125 1.597656 -0.484375 1.703125 -0.546875 C 1.804688 -0.609375 1.859375 -0.691406 1.859375 -0.796875 C 1.859375 -0.898438 1.820312 -0.976562 1.75 -1.03125 C 1.6875 -1.082031 1.570312 -1.117188 1.40625 -1.140625 L 0.84375 -1.25 C 0.601562 -1.28125 0.421875 -1.359375 0.296875 -1.484375 C 0.171875 -1.617188 0.109375 -1.785156 0.109375 -1.984375 C 0.109375 -2.253906 0.207031 -2.460938 0.40625 -2.609375 C 0.613281 -2.765625 0.882812 -2.84375 1.21875 -2.84375 C 1.425781 -2.84375 1.628906 -2.804688 1.828125 -2.734375 C 2.035156 -2.660156 2.21875 -2.566406 2.375 -2.453125 L 2.0625 -2.015625 C 1.914062 -2.128906 1.769531 -2.210938 1.625 -2.265625 C 1.476562 -2.328125 1.332031 -2.359375 1.1875 -2.359375 C 1.03125 -2.359375 0.90625 -2.328125 0.8125 -2.265625 C 0.71875 -2.210938 0.671875 -2.132812 0.671875 -2.03125 C 0.671875 -1.945312 0.703125 -1.878906 0.765625 -1.828125 C 0.828125 -1.785156 0.925781 -1.753906 1.0625 -1.734375 L 1.59375 -1.640625 C 1.875 -1.597656 2.082031 -1.507812 2.21875 -1.375 C 2.363281 -1.25 2.4375 -1.078125 2.4375 -0.859375 C 2.4375 -0.585938 2.328125 -0.367188 2.109375 -0.203125 C 1.890625 -0.0351562 1.601562 0.046875 1.25 0.046875 C 1.03125 0.046875 0.8125 0.00390625 0.59375 -0.078125 C 0.375 -0.171875 0.179688 -0.289062 0.015625 -0.4375 Z M 0.015625 -0.4375 "/></g></g><g style="fill:#32bada;fill-opacity:1;"><g transform="translate(94.953751, 46.478623)"><path style="stroke:none" d="M 0.25 0 L 0.25 -2.796875 L 0.828125 -2.796875 L 0.828125 0 Z M 0.25 0 "/></g></g><g style="fill:#32bada;fill-opacity:1;"><g transform="translate(96.702779, 46.478623)"><path style="stroke:none" d="M 3.109375 -1.40625 C 3.109375 -1.195312 3.066406 -1.003906 2.984375 -0.828125 C 2.910156 -0.648438 2.804688 -0.5 2.671875 -0.375 C 2.546875 -0.25 2.390625 -0.144531 2.203125 -0.0625 C 2.023438 0.0078125 1.832031 0.046875 1.625 0.046875 C 1.414062 0.046875 1.21875 0.0078125 1.03125 -0.0625 C 0.851562 -0.144531 0.695312 -0.25 0.5625 -0.375 C 0.4375 -0.5 0.332031 -0.648438 0.25 -0.828125 C 0.175781 -1.003906 0.140625 -1.195312 0.140625 -1.40625 C 0.140625 -1.601562 0.175781 -1.789062 0.25 -1.96875 C 0.332031 -2.144531 0.4375 -2.296875 0.5625 -2.421875 C 0.695312 -2.554688 0.851562 -2.660156 1.03125 -2.734375 C 1.21875 -2.804688 1.414062 -2.84375 1.625 -2.84375 C 1.832031 -2.84375 2.023438 -2.804688 2.203125 -2.734375 C 2.390625 -2.660156 2.546875 -2.554688 2.671875 -2.421875 C 2.804688 -2.296875 2.910156 -2.144531 2.984375 -1.96875 C 3.066406 -1.789062 3.109375 -1.601562 3.109375 -1.40625 Z M 2.515625 -1.40625 C 2.515625 -1.53125 2.488281 -1.644531 2.4375 -1.75 C 2.394531 -1.863281 2.332031 -1.960938 2.25 -2.046875 C 2.175781 -2.128906 2.082031 -2.191406 1.96875 -2.234375 C 1.863281 -2.285156 1.75 -2.3125 1.625 -2.3125 C 1.5 -2.3125 1.378906 -2.285156 1.265625 -2.234375 C 1.160156 -2.191406 1.066406 -2.128906 0.984375 -2.046875 C 0.910156 -1.960938 0.847656 -1.863281 0.796875 -1.75 C 0.753906 -1.644531 0.734375 -1.53125 0.734375 -1.40625 C 0.734375 -1.269531 0.753906 -1.144531 0.796875 -1.03125 C 0.847656 -0.925781 0.910156 -0.832031 0.984375 -0.75 C 1.066406 -0.664062 1.160156 -0.597656 1.265625 -0.546875 C 1.378906 -0.503906 1.5 -0.484375 1.625 -0.484375 C 1.75 -0.484375 1.863281 -0.503906 1.96875 -0.546875 C 2.082031 -0.597656 2.175781 -0.664062 2.25 -0.75 C 2.332031 -0.832031 2.394531 -0.925781 2.4375 -1.03125 C 2.488281 -1.144531 2.515625 -1.269531 2.515625 -1.40625 Z M 2.515625 -1.40625 "/></g></g><g style="fill:#32bada;fill-opacity:1;"><g transform="translate(100.612149, 46.478623)"><path style="stroke:none" d="M 0.25 -2.796875 L 0.796875 -2.796875 L 2.203125 -0.984375 L 2.203125 -2.796875 L 2.734375 -2.796875 L 2.734375 0 L 2.234375 0 L 0.796875 -1.875 L 0.796875 0 L 0.25 0 Z M 0.25 -2.796875 "/></g></g><g style="fill:#32bada;fill-opacity:1;"><g transform="translate(104.265951, 46.478623)"><path style="stroke:none" d=""/></g></g><g style="fill:#32bada;fill-opacity:1;"><g transform="translate(105.731461, 46.478623)"><path style="stroke:none" d="M 0.25 0 L 0.25 -2.796875 L 1.65625 -2.796875 C 1.789062 -2.796875 1.914062 -2.773438 2.03125 -2.734375 C 2.144531 -2.691406 2.242188 -2.628906 2.328125 -2.546875 C 2.410156 -2.472656 2.472656 -2.378906 2.515625 -2.265625 C 2.566406 -2.160156 2.59375 -2.046875 2.59375 -1.921875 C 2.59375 -1.796875 2.566406 -1.679688 2.515625 -1.578125 C 2.472656 -1.472656 2.410156 -1.378906 2.328125 -1.296875 C 2.242188 -1.222656 2.144531 -1.164062 2.03125 -1.125 C 1.914062 -1.082031 1.789062 -1.0625 1.65625 -1.0625 L 0.828125 -1.0625 L 0.828125 0 Z M 1.59375 -2.296875 L 0.828125 -2.296875 L 0.828125 -1.53125 L 1.59375 -1.53125 C 1.71875 -1.53125 1.816406 -1.566406 1.890625 -1.640625 C 1.972656 -1.710938 2.015625 -1.804688 2.015625 -1.921875 C 2.015625 -2.035156 1.972656 -2.125 1.890625 -2.1875 C 1.816406 -2.257812 1.71875 -2.296875 1.59375 -2.296875 Z M 1.59375 -2.296875 "/></g></g><g style="fill:#32bada;fill-opacity:1;"><g transform="translate(109.113722, 46.478623)"><path style="stroke:none" d="M 0.25 0 L 0.25 -2.796875 L 1.625 -2.796875 C 1.757812 -2.796875 1.882812 -2.773438 2 -2.734375 C 2.125 -2.691406 2.226562 -2.628906 2.3125 -2.546875 C 2.394531 -2.472656 2.460938 -2.382812 2.515625 -2.28125 C 2.566406 -2.175781 2.59375 -2.0625 2.59375 -1.9375 C 2.59375 -1.757812 2.539062 -1.597656 2.4375 -1.453125 C 2.332031 -1.316406 2.203125 -1.21875 2.046875 -1.15625 L 2.65625 0 L 2.015625 0 L 1.46875 -1.078125 L 0.828125 -1.078125 L 0.828125 0 Z M 1.5625 -2.296875 L 0.828125 -2.296875 L 0.828125 -1.546875 L 1.5625 -1.546875 C 1.695312 -1.546875 1.800781 -1.578125 1.875 -1.640625 C 1.957031 -1.710938 2 -1.804688 2 -1.921875 C 2 -2.035156 1.957031 -2.125 1.875 -2.1875 C 1.800781 -2.257812 1.695312 -2.296875 1.5625 -2.296875 Z M 1.5625 -2.296875 "/></g></g><g style="fill:#32bada;fill-opacity:1;"><g transform="translate(112.487996, 46.478623)"><path style="stroke:none" d="M 3.109375 -1.40625 C 3.109375 -1.195312 3.066406 -1.003906 2.984375 -0.828125 C 2.910156 -0.648438 2.804688 -0.5 2.671875 -0.375 C 2.546875 -0.25 2.390625 -0.144531 2.203125 -0.0625 C 2.023438 0.0078125 1.832031 0.046875 1.625 0.046875 C 1.414062 0.046875 1.21875 0.0078125 1.03125 -0.0625 C 0.851562 -0.144531 0.695312 -0.25 0.5625 -0.375 C 0.4375 -0.5 0.332031 -0.648438 0.25 -0.828125 C 0.175781 -1.003906 0.140625 -1.195312 0.140625 -1.40625 C 0.140625 -1.601562 0.175781 -1.789062 0.25 -1.96875 C 0.332031 -2.144531 0.4375 -2.296875 0.5625 -2.421875 C 0.695312 -2.554688 0.851562 -2.660156 1.03125 -2.734375 C 1.21875 -2.804688 1.414062 -2.84375 1.625 -2.84375 C 1.832031 -2.84375 2.023438 -2.804688 2.203125 -2.734375 C 2.390625 -2.660156 2.546875 -2.554688 2.671875 -2.421875 C 2.804688 -2.296875 2.910156 -2.144531 2.984375 -1.96875 C 3.066406 -1.789062 3.109375 -1.601562 3.109375 -1.40625 Z M 2.515625 -1.40625 C 2.515625 -1.53125 2.488281 -1.644531 2.4375 -1.75 C 2.394531 -1.863281 2.332031 -1.960938 2.25 -2.046875 C 2.175781 -2.128906 2.082031 -2.191406 1.96875 -2.234375 C 1.863281 -2.285156 1.75 -2.3125 1.625 -2.3125 C 1.5 -2.3125 1.378906 -2.285156 1.265625 -2.234375 C 1.160156 -2.191406 1.066406 -2.128906 0.984375 -2.046875 C 0.910156 -1.960938 0.847656 -1.863281 0.796875 -1.75 C 0.753906 -1.644531 0.734375 -1.53125 0.734375 -1.40625 C 0.734375 -1.269531 0.753906 -1.144531 0.796875 -1.03125 C 0.847656 -0.925781 0.910156 -0.832031 0.984375 -0.75 C 1.066406 -0.664062 1.160156 -0.597656 1.265625 -0.546875 C 1.378906 -0.503906 1.5 -0.484375 1.625 -0.484375 C 1.75 -0.484375 1.863281 -0.503906 1.96875 -0.546875 C 2.082031 -0.597656 2.175781 -0.664062 2.25 -0.75 C 2.332031 -0.832031 2.394531 -0.925781 2.4375 -1.03125 C 2.488281 -1.144531 2.515625 -1.269531 2.515625 -1.40625 Z M 2.515625 -1.40625 "/></g></g><g style="fill:#32bada;fill-opacity:1;"><g transform="translate(116.397366, 46.478623)"><path style="stroke:none" d="M 0.078125 -2.28125 L 0.078125 -2.796875 L 2.53125 -2.796875 L 2.53125 -2.28125 L 1.59375 -2.28125 L 1.59375 0 L 1.015625 0 L 1.015625 -2.28125 Z M 0.078125 -2.28125 "/></g></g><g style="fill:#32bada;fill-opacity:1;"><g transform="translate(119.663822, 46.478623)"><path style="stroke:none" d="M 0.25 0 L 0.25 -2.796875 L 2.40625 -2.796875 L 2.40625 -2.296875 L 0.828125 -2.296875 L 0.828125 -1.65625 L 1.875 -1.65625 L 1.875 -1.171875 L 0.828125 -1.171875 L 0.828125 -0.5 L 2.421875 -0.5 L 2.421875 0 Z M 0.25 0 "/></g></g><g style="fill:#32bada;fill-opacity:1;"><g transform="translate(122.902326, 46.478623)"><path style="stroke:none" d="M 1.65625 -0.5 C 1.800781 -0.5 1.9375 -0.53125 2.0625 -0.59375 C 2.1875 -0.65625 2.300781 -0.742188 2.40625 -0.859375 L 2.78125 -0.46875 C 2.644531 -0.3125 2.472656 -0.1875 2.265625 -0.09375 C 2.066406 0 1.859375 0.046875 1.640625 0.046875 C 1.421875 0.046875 1.21875 0.0078125 1.03125 -0.0625 C 0.851562 -0.144531 0.695312 -0.25 0.5625 -0.375 C 0.4375 -0.5 0.332031 -0.648438 0.25 -0.828125 C 0.175781 -1.003906 0.140625 -1.195312 0.140625 -1.40625 C 0.140625 -1.601562 0.175781 -1.789062 0.25 -1.96875 C 0.332031 -2.144531 0.441406 -2.296875 0.578125 -2.421875 C 0.710938 -2.554688 0.867188 -2.660156 1.046875 -2.734375 C 1.234375 -2.804688 1.429688 -2.84375 1.640625 -2.84375 C 1.859375 -2.84375 2.070312 -2.796875 2.28125 -2.703125 C 2.5 -2.609375 2.671875 -2.476562 2.796875 -2.3125 L 2.40625 -1.9375 C 2.3125 -2.050781 2.195312 -2.140625 2.0625 -2.203125 C 1.925781 -2.273438 1.785156 -2.3125 1.640625 -2.3125 C 1.515625 -2.3125 1.394531 -2.285156 1.28125 -2.234375 C 1.164062 -2.191406 1.066406 -2.128906 0.984375 -2.046875 C 0.910156 -1.960938 0.847656 -1.863281 0.796875 -1.75 C 0.753906 -1.644531 0.734375 -1.53125 0.734375 -1.40625 C 0.734375 -1.269531 0.753906 -1.144531 0.796875 -1.03125 C 0.847656 -0.925781 0.914062 -0.832031 1 -0.75 C 1.082031 -0.675781 1.175781 -0.613281 1.28125 -0.5625 C 1.394531 -0.519531 1.519531 -0.5 1.65625 -0.5 Z M 1.65625 -0.5 "/></g></g><g style="fill:#32bada;fill-opacity:1;"><g transform="translate(126.432336, 46.478623)"><path style="stroke:none" d="M 0.078125 -2.28125 L 0.078125 -2.796875 L 2.53125 -2.796875 L 2.53125 -2.28125 L 1.59375 -2.28125 L 1.59375 0 L 1.015625 0 L 1.015625 -2.28125 Z M 0.078125 -2.28125 "/></g></g><g style="fill:#32bada;fill-opacity:1;"><g transform="translate(129.698792, 46.478623)"><path style="stroke:none" d="M 0.25 0 L 0.25 -2.796875 L 0.828125 -2.796875 L 0.828125 0 Z M 0.25 0 "/></g></g><g style="fill:#32bada;fill-opacity:1;"><g transform="translate(131.44782, 46.478623)"><path style="stroke:none" d="M 3.109375 -1.40625 C 3.109375 -1.195312 3.066406 -1.003906 2.984375 -0.828125 C 2.910156 -0.648438 2.804688 -0.5 2.671875 -0.375 C 2.546875 -0.25 2.390625 -0.144531 2.203125 -0.0625 C 2.023438 0.0078125 1.832031 0.046875 1.625 0.046875 C 1.414062 0.046875 1.21875 0.0078125 1.03125 -0.0625 C 0.851562 -0.144531 0.695312 -0.25 0.5625 -0.375 C 0.4375 -0.5 0.332031 -0.648438 0.25 -0.828125 C 0.175781 -1.003906 0.140625 -1.195312 0.140625 -1.40625 C 0.140625 -1.601562 0.175781 -1.789062 0.25 -1.96875 C 0.332031 -2.144531 0.4375 -2.296875 0.5625 -2.421875 C 0.695312 -2.554688 0.851562 -2.660156 1.03125 -2.734375 C 1.21875 -2.804688 1.414062 -2.84375 1.625 -2.84375 C 1.832031 -2.84375 2.023438 -2.804688 2.203125 -2.734375 C 2.390625 -2.660156 2.546875 -2.554688 2.671875 -2.421875 C 2.804688 -2.296875 2.910156 -2.144531 2.984375 -1.96875 C 3.066406 -1.789062 3.109375 -1.601562 3.109375 -1.40625 Z M 2.515625 -1.40625 C 2.515625 -1.53125 2.488281 -1.644531 2.4375 -1.75 C 2.394531 -1.863281 2.332031 -1.960938 2.25 -2.046875 C 2.175781 -2.128906 2.082031 -2.191406 1.96875 -2.234375 C 1.863281 -2.285156 1.75 -2.3125 1.625 -2.3125 C 1.5 -2.3125 1.378906 -2.285156 1.265625 -2.234375 C 1.160156 -2.191406 1.066406 -2.128906 0.984375 -2.046875 C 0.910156 -1.960938 0.847656 -1.863281 0.796875 -1.75 C 0.753906 -1.644531 0.734375 -1.53125 0.734375 -1.40625 C 0.734375 -1.269531 0.753906 -1.144531 0.796875 -1.03125 C 0.847656 -0.925781 0.910156 -0.832031 0.984375 -0.75 C 1.066406 -0.664062 1.160156 -0.597656 1.265625 -0.546875 C 1.378906 -0.503906 1.5 -0.484375 1.625 -0.484375 C 1.75 -0.484375 1.863281 -0.503906 1.96875 -0.546875 C 2.082031 -0.597656 2.175781 -0.664062 2.25 -0.75 C 2.332031 -0.832031 2.394531 -0.925781 2.4375 -1.03125 C 2.488281 -1.144531 2.515625 -1.269531 2.515625 -1.40625 Z M 2.515625 -1.40625 "/></g></g><g style="fill:#32bada;fill-opacity:1;"><g transform="translate(135.35719, 46.478623)"><path style="stroke:none" d="M 0.25 -2.796875 L 0.796875 -2.796875 L 2.203125 -0.984375 L 2.203125 -2.796875 L 2.734375 -2.796875 L 2.734375 0 L 2.234375 0 L 0.796875 -1.875 L 0.796875 0 L 0.25 0 Z M 0.25 -2.796875 "/></g></g><g style="fill:#32bada;fill-opacity:1;"><g transform="translate(139.010992, 46.478623)"><path style="stroke:none" d=""/></g></g><g style="fill:#32bada;fill-opacity:1;"><g transform="translate(140.476501, 46.478623)"><path style="stroke:none" d="M 0.15625 0 L 0.15625 -0.390625 L 1.25 -1.375 C 1.375 -1.488281 1.460938 -1.585938 1.515625 -1.671875 C 1.578125 -1.753906 1.609375 -1.84375 1.609375 -1.9375 C 1.609375 -2.0625 1.554688 -2.164062 1.453125 -2.25 C 1.359375 -2.332031 1.238281 -2.375 1.09375 -2.375 C 0.96875 -2.375 0.84375 -2.34375 0.71875 -2.28125 C 0.601562 -2.226562 0.476562 -2.144531 0.34375 -2.03125 L 0.046875 -2.390625 C 0.203125 -2.535156 0.367188 -2.644531 0.546875 -2.71875 C 0.734375 -2.800781 0.921875 -2.84375 1.109375 -2.84375 C 1.265625 -2.84375 1.40625 -2.820312 1.53125 -2.78125 C 1.65625 -2.738281 1.757812 -2.675781 1.84375 -2.59375 C 1.9375 -2.519531 2.007812 -2.429688 2.0625 -2.328125 C 2.113281 -2.222656 2.140625 -2.109375 2.140625 -1.984375 C 2.140625 -1.816406 2.097656 -1.664062 2.015625 -1.53125 C 1.929688 -1.394531 1.789062 -1.238281 1.59375 -1.0625 L 0.921875 -0.453125 L 2.171875 -0.453125 L 2.171875 0 Z M 0.15625 0 "/></g></g><g style="fill:#32bada;fill-opacity:1;"><g transform="translate(143.427495, 46.478623)"><path style="stroke:none" d="M 2.234375 -2.796875 L 2.234375 -1.109375 L 2.578125 -1.109375 L 2.578125 -0.65625 L 2.234375 -0.65625 L 2.234375 0 L 1.6875 0 L 1.6875 -0.65625 L 0.109375 -0.65625 L 0.109375 -1.09375 L 1.609375 -2.796875 Z M 0.734375 -1.109375 L 1.6875 -1.109375 L 1.6875 -2.1875 Z M 0.734375 -1.109375 "/></g></g><g style="fill:#32bada;fill-opacity:1;"><g transform="translate(146.777808, 46.478623)"><path style="stroke:none" d="M -0.28125 0.84375 L 1.40625 -2.796875 L 1.953125 -2.796875 L 0.265625 0.84375 Z M -0.28125 0.84375 "/></g></g><g style="fill:#32bada;fill-opacity:1;"><g transform="translate(149.477225, 46.478623)"><path style="stroke:none" d="M 0.40625 0 L 1.703125 -2.328125 L 0.078125 -2.328125 L 0.078125 -2.796875 L 2.328125 -2.796875 L 2.328125 -2.390625 L 1.0625 0 Z M 0.40625 0 "/></g></g></g></svg>
