<svg xmlns="http://www.w3.org/2000/svg" xmlns:xlink="http://www.w3.org/1999/xlink" width="251" zoomAndPan="magnify" viewBox="0 0 188.25 52.499999" height="70" preserveAspectRatio="xMidYMid meet" version="1.2"><defs><clipPath id="532f4a8d6b"><path d="M 31.460938 28 L 42 28 L 42 37 L 31.460938 37 Z M 31.460938 28 "/></clipPath><clipPath id="d132152fa2"><path d="M 31.460938 20.324219 L 42.605469 20.324219 L 42.605469 33 L 31.460938 33 Z M 31.460938 20.324219 "/></clipPath></defs><g id="c87c1114c8"><g clip-rule="nonzero" clip-path="url(#532f4a8d6b)"><path style=" stroke:none;fill-rule:nonzero;fill:#32bada;fill-opacity:1;" d="M 33.113281 29.195312 C 33.121094 29.15625 33.125 29.113281 33.125 29.074219 C 33.125 28.613281 32.75 28.242188 32.292969 28.242188 C 31.832031 28.242188 31.460938 28.613281 31.460938 29.074219 C 31.460938 29.53125 31.832031 29.90625 32.292969 29.90625 C 32.511719 29.90625 32.707031 29.820312 32.855469 29.683594 L 40.480469 33.695312 C 39.777344 34.667969 38.746094 35.511719 37.238281 36.246094 C 35.0625 35.191406 33.882812 33.902344 33.242188 32.339844 L 36.414062 34.007812 C 36.410156 34.046875 36.40625 34.085938 36.40625 34.128906 C 36.40625 34.585938 36.777344 34.957031 37.238281 34.957031 C 37.695312 34.957031 38.070312 34.585938 38.070312 34.128906 C 38.070312 33.667969 37.695312 33.296875 37.238281 33.296875 C 37.019531 33.296875 36.820312 33.378906 36.671875 33.515625 L 32.980469 31.574219 L 32.324219 31.226562 C 32.378906 31.476562 32.445312 31.71875 32.523438 31.957031 C 33.148438 33.921875 34.449219 35.535156 37.117188 36.800781 L 37.238281 36.859375 L 37.355469 36.800781 C 39.058594 35.996094 40.203125 35.046875 40.972656 33.957031 C 41.082031 33.804688 41.183594 33.648438 41.273438 33.488281 L 40.785156 33.230469 Z M 33.113281 29.195312 "/></g><g clip-rule="nonzero" clip-path="url(#d132152fa2)"><path style=" stroke:none;fill-rule:nonzero;fill:#32bada;fill-opacity:1;" d="M 41.773438 30.78125 C 41.554688 30.78125 41.355469 30.867188 41.207031 31.003906 L 32.832031 26.59375 L 37.238281 24.382812 L 41.972656 26.761719 C 41.96875 27.519531 41.957031 28.242188 41.914062 28.925781 L 38.058594 26.894531 C 38.066406 26.855469 38.070312 26.816406 38.070312 26.777344 C 38.070312 26.316406 37.695312 25.945312 37.238281 25.945312 C 36.777344 25.945312 36.40625 26.316406 36.40625 26.777344 C 36.40625 27.234375 36.777344 27.605469 37.238281 27.605469 C 37.457031 27.605469 37.652344 27.523438 37.800781 27.386719 L 41.863281 29.523438 L 42.390625 29.800781 C 42.410156 29.605469 42.429688 29.40625 42.445312 29.207031 C 42.507812 28.378906 42.523438 27.507812 42.523438 26.589844 L 42.523438 26.417969 L 40.511719 25.40625 L 40.511719 23.605469 C 40.511719 21.800781 39.042969 20.332031 37.238281 20.332031 C 35.433594 20.332031 33.964844 21.800781 33.964844 23.605469 L 33.964844 25.40625 L 32.230469 26.277344 L 31.949219 26.417969 L 31.949219 26.589844 C 31.949219 26.644531 31.949219 26.703125 31.953125 26.757812 L 32.507812 27.050781 L 40.949219 31.496094 C 40.945312 31.535156 40.941406 31.574219 40.941406 31.613281 C 40.941406 32.074219 41.3125 32.445312 41.773438 32.445312 C 42.230469 32.445312 42.605469 32.074219 42.605469 31.613281 C 42.605469 31.15625 42.230469 30.78125 41.773438 30.78125 Z M 34.519531 23.605469 C 34.519531 22.105469 35.738281 20.886719 37.238281 20.886719 C 38.738281 20.886719 39.957031 22.105469 39.957031 23.605469 L 39.957031 25.128906 L 37.238281 23.761719 L 34.519531 25.128906 Z M 34.519531 23.605469 "/></g><g style="fill:#ffffff;fill-opacity:1;"><g transform="translate(44.459487, 34.949621)"><path style="stroke:none" d="M 10.328125 -8.453125 L 10.328125 0 L 8.265625 0 L 8.265625 -5.078125 L 6.375 0 L 4.703125 0 L 2.8125 -5.078125 L 2.8125 0 L 0.75 0 L 0.75 -8.453125 L 3.1875 -8.453125 L 5.546875 -2.609375 L 7.90625 -8.453125 Z M 10.328125 -8.453125 "/></g></g><g style="fill:#ffffff;fill-opacity:1;"><g transform="translate(56.031675, 34.949621)"><path style="stroke:none" d="M 6.015625 -1.5 L 2.859375 -1.5 L 2.34375 0 L 0.1875 0 L 3.25 -8.453125 L 5.640625 -8.453125 L 8.703125 0 L 6.515625 0 Z M 5.484375 -3.078125 L 4.4375 -6.1875 L 3.390625 -3.078125 Z M 5.484375 -3.078125 "/></g></g><g style="fill:#ffffff;fill-opacity:1;"><g transform="translate(65.422032, 34.949621)"><path style="stroke:none" d="M 5.0625 0 L 3.296875 -3.1875 L 2.8125 -3.1875 L 2.8125 0 L 0.75 0 L 0.75 -8.453125 L 4.203125 -8.453125 C 4.867188 -8.453125 5.4375 -8.335938 5.90625 -8.109375 C 6.375 -7.878906 6.722656 -7.5625 6.953125 -7.15625 C 7.191406 -6.75 7.3125 -6.296875 7.3125 -5.796875 C 7.3125 -5.234375 7.148438 -4.726562 6.828125 -4.28125 C 6.515625 -3.84375 6.050781 -3.53125 5.4375 -3.34375 L 7.390625 0 Z M 2.8125 -4.65625 L 4.078125 -4.65625 C 4.460938 -4.65625 4.75 -4.742188 4.9375 -4.921875 C 5.125 -5.109375 5.21875 -5.367188 5.21875 -5.703125 C 5.21875 -6.023438 5.125 -6.28125 4.9375 -6.46875 C 4.75 -6.65625 4.460938 -6.75 4.078125 -6.75 L 2.8125 -6.75 Z M 2.8125 -4.65625 "/></g></g><g style="fill:#ffffff;fill-opacity:1;"><g transform="translate(73.787772, 34.949621)"><path style="stroke:none" d="M 6.828125 -8.453125 L 6.828125 -6.8125 L 4.59375 -6.8125 L 4.59375 0 L 2.53125 0 L 2.53125 -6.8125 L 0.296875 -6.8125 L 0.296875 -8.453125 Z M 6.828125 -8.453125 "/></g></g><g style="fill:#ffffff;fill-opacity:1;"><g transform="translate(81.418199, 34.949621)"><path style="stroke:none" d=""/></g></g><g style="fill:#ffffff;fill-opacity:1;"><g transform="translate(84.48428, 34.949621)"><path style="stroke:none" d="M 6.015625 -1.5 L 2.859375 -1.5 L 2.34375 0 L 0.1875 0 L 3.25 -8.453125 L 5.640625 -8.453125 L 8.703125 0 L 6.515625 0 Z M 5.484375 -3.078125 L 4.4375 -6.1875 L 3.390625 -3.078125 Z M 5.484375 -3.078125 "/></g></g><g style="fill:#ffffff;fill-opacity:1;"><g transform="translate(93.874637, 34.949621)"><path style="stroke:none" d="M 2.8125 -1.59375 L 5.5 -1.59375 L 5.5 0 L 0.75 0 L 0.75 -8.453125 L 2.8125 -8.453125 Z M 2.8125 -1.59375 "/></g></g><g style="fill:#ffffff;fill-opacity:1;"><g transform="translate(100.130878, 34.949621)"><path style="stroke:none" d="M 6.015625 -1.5 L 2.859375 -1.5 L 2.34375 0 L 0.1875 0 L 3.25 -8.453125 L 5.640625 -8.453125 L 8.703125 0 L 6.515625 0 Z M 5.484375 -3.078125 L 4.4375 -6.1875 L 3.390625 -3.078125 Z M 5.484375 -3.078125 "/></g></g><g style="fill:#ffffff;fill-opacity:1;"><g transform="translate(109.521235, 34.949621)"><path style="stroke:none" d="M 5.0625 0 L 3.296875 -3.1875 L 2.8125 -3.1875 L 2.8125 0 L 0.75 0 L 0.75 -8.453125 L 4.203125 -8.453125 C 4.867188 -8.453125 5.4375 -8.335938 5.90625 -8.109375 C 6.375 -7.878906 6.722656 -7.5625 6.953125 -7.15625 C 7.191406 -6.75 7.3125 -6.296875 7.3125 -5.796875 C 7.3125 -5.234375 7.148438 -4.726562 6.828125 -4.28125 C 6.515625 -3.84375 6.050781 -3.53125 5.4375 -3.34375 L 7.390625 0 Z M 2.8125 -4.65625 L 4.078125 -4.65625 C 4.460938 -4.65625 4.75 -4.742188 4.9375 -4.921875 C 5.125 -5.109375 5.21875 -5.367188 5.21875 -5.703125 C 5.21875 -6.023438 5.125 -6.28125 4.9375 -6.46875 C 4.75 -6.65625 4.460938 -6.75 4.078125 -6.75 L 2.8125 -6.75 Z M 2.8125 -4.65625 "/></g></g><g style="fill:#ffffff;fill-opacity:1;"><g transform="translate(117.886975, 34.949621)"><path style="stroke:none" d="M 6.015625 -1.5 L 2.859375 -1.5 L 2.34375 0 L 0.1875 0 L 3.25 -8.453125 L 5.640625 -8.453125 L 8.703125 0 L 6.515625 0 Z M 5.484375 -3.078125 L 4.4375 -6.1875 L 3.390625 -3.078125 Z M 5.484375 -3.078125 "/></g></g><g style="fill:#ffffff;fill-opacity:1;"><g transform="translate(127.277332, 34.949621)"><path style="stroke:none" d="M 10.328125 -8.453125 L 10.328125 0 L 8.265625 0 L 8.265625 -5.078125 L 6.375 0 L 4.703125 0 L 2.8125 -5.078125 L 2.8125 0 L 0.75 0 L 0.75 -8.453125 L 3.1875 -8.453125 L 5.546875 -2.609375 L 7.90625 -8.453125 Z M 10.328125 -8.453125 "/></g></g><g style="fill:#ffffff;fill-opacity:1;"><g transform="translate(138.84952, 34.949621)"><path style="stroke:none" d="M 3.8125 0.078125 C 3.1875 0.078125 2.628906 -0.0195312 2.140625 -0.21875 C 1.648438 -0.414062 1.257812 -0.710938 0.96875 -1.109375 C 0.675781 -1.503906 0.519531 -1.976562 0.5 -2.53125 L 2.703125 -2.53125 C 2.734375 -2.21875 2.835938 -1.976562 3.015625 -1.8125 C 3.203125 -1.644531 3.445312 -1.5625 3.75 -1.5625 C 4.050781 -1.5625 4.289062 -1.628906 4.46875 -1.765625 C 4.644531 -1.910156 4.734375 -2.109375 4.734375 -2.359375 C 4.734375 -2.566406 4.660156 -2.738281 4.515625 -2.875 C 4.378906 -3.007812 4.207031 -3.117188 4 -3.203125 C 3.800781 -3.296875 3.507812 -3.398438 3.125 -3.515625 C 2.582031 -3.679688 2.140625 -3.847656 1.796875 -4.015625 C 1.453125 -4.191406 1.15625 -4.441406 0.90625 -4.765625 C 0.65625 -5.097656 0.53125 -5.53125 0.53125 -6.0625 C 0.53125 -6.84375 0.8125 -7.457031 1.375 -7.90625 C 1.945312 -8.351562 2.691406 -8.578125 3.609375 -8.578125 C 4.546875 -8.578125 5.296875 -8.351562 5.859375 -7.90625 C 6.429688 -7.457031 6.738281 -6.835938 6.78125 -6.046875 L 4.546875 -6.046875 C 4.535156 -6.316406 4.4375 -6.53125 4.25 -6.6875 C 4.0625 -6.84375 3.828125 -6.921875 3.546875 -6.921875 C 3.296875 -6.921875 3.09375 -6.851562 2.9375 -6.71875 C 2.78125 -6.59375 2.703125 -6.40625 2.703125 -6.15625 C 2.703125 -5.882812 2.832031 -5.671875 3.09375 -5.515625 C 3.351562 -5.359375 3.753906 -5.195312 4.296875 -5.03125 C 4.847656 -4.84375 5.289062 -4.660156 5.625 -4.484375 C 5.96875 -4.316406 6.265625 -4.070312 6.515625 -3.75 C 6.765625 -3.4375 6.890625 -3.023438 6.890625 -2.515625 C 6.890625 -2.035156 6.765625 -1.597656 6.515625 -1.203125 C 6.273438 -0.804688 5.921875 -0.492188 5.453125 -0.265625 C 4.992188 -0.0351562 4.445312 0.078125 3.8125 0.078125 Z M 3.8125 0.078125 "/></g></g><g style="fill:#32bada;fill-opacity:1;"><g transform="translate(146.488651, 28.573764)"><path style="stroke:none" d="M 0.078125 -2.265625 L 0.078125 -2.78125 L 2.515625 -2.78125 L 2.515625 -2.265625 L 1.578125 -2.265625 L 1.578125 0 L 1.015625 0 L 1.015625 -2.265625 Z M 0.078125 -2.265625 "/></g></g><g style="fill:#32bada;fill-opacity:1;"><g transform="translate(149.072059, 28.573764)"><path style="stroke:none" d="M 1.75 -0.203125 L 0.78125 -2.046875 L 0.78125 0 L 0.25 0 L 0.25 -2.78125 L 0.984375 -2.78125 L 1.75 -1.28125 L 2.515625 -2.78125 L 3.25 -2.78125 L 3.25 0 L 2.703125 0 L 2.703125 -2.046875 Z M 1.75 -0.203125 "/></g></g></g></svg>